# xmcd
#
# Track frame offsets: 
#        150
#        21035
#        47103
#        68690
#        88493
#        111060
#        133863
#        157325
#        178868
#        200918
#
# Disc length: 3057 seconds
#
# Revision: 0
# Processed by: cddbd v1.5.2PL0 Copyright (c) Steve Scherf et al.
# Submitted via: ExactAudioCopy v1.0b3
#
DISCID=980bef0a
DTITLE=Various Artist - Phuong Hong Phuong Tim
DYEAR=1994
DGENRE=Country
TTITLE0=Thien Trang - Mua da sang roi em co hay
TTITLE1=Duy Khanh - Hue xua
TTITLE2=Nhu Mai - Hoa dang nhu tim vo
TTITLE3=Che Linh - Con gi ma mong
TTITLE4=Thien Trang - Phuong hong phuong tim
TTITLE5=Thien Trang - Nguoi o lai buon
TTITLE6=Che Linh - Tinh phai
TTITLE7=Phuong Dung - Biet den bao gio
TTITLE8=Duy Khanh - Nho nhau hoai
TTITLE9=Thien Trang - Dem trang xu Hue
EXTD=
EXTT0=
EXTT1=
EXTT2=
EXTT3=
EXTT4=
EXTT5=
EXTT6=
EXTT7=
EXTT8=
EXTT9=
PLAYORDER=
